# xmcd
#
# Track frame offsets:
#	150
#	4423
#	23773
#	40785
#	53722
#	76886
#	95665
#	115429
#	121301
#	143501
#	146625
#	167325
#	188775
#	190266
#	209685
#	229898
#	232364
#	236590
#	241531
#	250247
#	253805
#	261420
#	282376
#	286147
#	310418
#
# Disc length: 4488 seconds
# Revision: 0
# Processed by: cddbd v1.5.2PL0 Copyright (c) Steve Scherf et al.
# Submitted via: dBpowerAMP V12.0
#
DISCID=6d118619
DTITLE=Lauryn Hill - Ms. Hill
DYEAR=2008
DGENRE=Hip-Hop
TTITLE0=Intro
TTITLE1=Lose Myself
TTITLE2=So High (Remix) (feat. John Legend)
TTITLE3=Take It Easy (feat. Wyclef Jean)
TTITLE4=Blame It On The Sun
TTITLE5=Final Hour
TTITLE6=Lost Ones
TTITLE7=Do You Like The Way
TTITLE8=Superstar
TTITLE9=Here But I'm Gone
TTITLE10=Tell Him
TTITLE11=The Sweetest Thing
TTITLE12=Skit: Lauryn Hill Speaks On Hip Hop
TTITLE13=The Sweetest Thing (Mahogany Remix) (feat. John Forte)
TTITLE14=L-Boogie - The Features (Interlude)
TTITLE15=Skit: Lauryn Hill Speaks On Music
TTITLE16=Music
TTITLE17=Cowboys (feat. Rah Digga)
TTITLE18=How Many Emcee's
TTITLE19=Guantanamera
TTITLE20=Soon As I Got Home
TTITLE21=Freedom
TTITLE22=Skit
TTITLE23=Ex-Factor
TTITLE24=Nothing Even Matters (feat. D'Angelo)
EXTD=
EXTT0=
EXTT1=
EXTT2=
EXTT3=
EXTT4=
EXTT5=
EXTT6=
EXTT7=
EXTT8=
EXTT9=
EXTT10=
EXTT11=
EXTT12=
EXTT13=
EXTT14=
EXTT15=
EXTT16=
EXTT17=
EXTT18=
EXTT19=
EXTT20=
EXTT21=
EXTT22=
EXTT23=
EXTT24=
PLAYORDER=
